<svg width="32" height="32" viewBox="0 0 32 32" fill="none" xmlns="http://www.w3.org/2000/svg">
<g id="avatar">
<mask id="mask0_3223_3561" style="mask-type:alpha" maskUnits="userSpaceOnUse" x="0" y="0" width="32" height="32">
<rect id="Rectangle 12" width="32" height="32" rx="16" fill="white"/>
</mask>
<g mask="url(#mask0_3223_3561)">
<rect id="Rectangle 13" width="32" height="32" rx="16" fill="#E7E5E4"/>
<path id="Vector" d="M16.0007 6.93335C17.1884 6.93335 18.3494 7.28524 19.337 7.94453C20.3245 8.60381 21.0943 9.54088 21.5488 10.6372C22.0033 11.7336 22.1222 12.94 21.8905 14.1039C21.6588 15.2677 21.0869 16.3368 20.247 17.176C19.4072 18.0151 18.3371 18.5865 17.1722 18.818C16.0073 19.0495 14.7999 18.9307 13.7025 18.4766C12.6052 18.0225 11.6673 17.2534 11.0075 16.2667C10.3476 15.28 9.9954 14.12 9.9954 12.9333C9.9954 11.342 10.6281 9.81592 11.7543 8.6907C12.8805 7.56549 14.408 6.93335 16.0007 6.93335ZM5.33398 27.9066C5.35713 26.1559 6.06922 24.4847 7.3162 23.2545C8.56317 22.0244 10.2448 21.3342 11.9971 21.3333H20.0042C21.7565 21.3342 23.4381 22.0244 24.6851 23.2545C25.9321 24.4847 26.6442 26.1559 26.6673 27.9066C23.7405 30.5417 19.9404 32 16.0007 32C12.0609 32 8.26076 30.5417 5.33398 27.9066Z" fill="#76716F"/>
</g>
</g>
</svg>
